{
  "asset": { "version": "2.0", "generator": "Ludivra asset cooker fixture" },
  "buffers": [
    {
      "uri": "data:application/octet-stream;base64,",
      "byteLength": 42
    }
  ],
  "bufferViews": [
    { "buffer": 0, "byteOffset": 0, "byteLength": 36, "target": 34962 },
    { "buffer": 0, "byteOffset": 36, "byteLength": 6, "target": 34963 }
  ],
  "accessors": [
    {
      "bufferView": 0,
      "componentType": 5126,
      "count": 3,
      "type": "VEC3",
      "min": [0, 0, 0],
      "max": [1, 1, 0]
    },
    { "bufferView": 1, "componentType": 5123, "count": 3, "type": "SCALAR" }
  ],
  "images": [{ "uri": "reference-texture.svg", "mimeType": "image/svg+xml" }],
  "textures": [{ "source": 0 }],
  "materials": [{ "pbrMetallicRoughness": { "baseColorTexture": { "index": 0 } } }],
  "meshes": [
    { "name": "reference-triangle", "primitives": [{ "attributes": { "POSITION": 0 }, "indices": 1, "material": 0 }] }
  ],
  "nodes": [{ "mesh": 0, "name": "reference-triangle" }],
  "scenes": [{ "nodes": [0] }],
  "scene": 0
}
